<?xml version="1.0" encoding="UTF-8"?>
<svg id="Calque_1" data-name="Calque 1" xmlns="http://www.w3.org/2000/svg" xmlns:xlink="http://www.w3.org/1999/xlink" viewBox="0 0 2000 1005">
  <defs>
    <style>
      .cls-1 {
        fill: url(#Dégradé_sans_nom_10);
      }
    </style>
    <linearGradient id="Dégradé_sans_nom_10" data-name="Dégradé sans nom 10" x1="95.11" y1="502.5" x2="1904.89" y2="502.5" gradientUnits="userSpaceOnUse">
      <stop offset="0" stop-color="#b8ce3a"/>
      <stop offset="1" stop-color="#60b137"/>
    </linearGradient>
  </defs>
  <path class="cls-1" d="m789.72,204.03l-34.54,72.27c-4.7,9.83-17.96,12.42-25.47,4.52-3.97-4.17-8.38-7.92-13.18-11.19-6.29-4.28-8.29-12.67-5.01-19.54l32.56-68.16c1.81-3.84,2.75-6.59,3.19-8.4-.94-.07-2.17-.22-3.62-.22h-119.07c-5.87,0-9.13,0-19.19,21.44l-36.94,76.84-33.32,69.46-64.46,134.21c-4.2,8.76-13.04,14.34-22.74,14.34h-.07c-9.71,0-18.54-5.5-22.74-14.2l-137.39-280.3c-11.15-21.8-13.4-21.8-18.76-21.8h-119.14c-1.45,0-2.68.14-3.62.22.43,1.81,1.3,4.49,3.11,8.18l230.32,459.55c3.55,7.03,3.62,15.28.22,22.38l-76.41,158.98h-.07c-1.96,4.06-2.82,6.95-3.26,8.84,1.01.14,2.25.22,3.69.22h120.81c5.58,0,8.62,0,19.34-21.8l74.69-156.27c3.98-8.33,16.49-5.49,16.49,3.74h0c0,14.44,3,27.69,8.48,39.25,3.27,6.89,3.6,14.79.31,21.67l-54.35,113.7c-12.6,25.64-27.81,50.41-64.97,50.41h-120.81c-21.44,0-38.31-8.11-47.66-22.96-6.88-11.01-12.24-30.13,1.59-58.81l71.05-147.75L103.9,204.24c-13.98-28.46-8.69-47.51-1.88-58.52,9.34-14.92,26.29-23.1,47.8-23.1h119.14c35.78,0,50.19,22.6,64.1,49.83l114.58,233.8,111.97-233.22c11.37-24.26,26.87-50.41,64.97-50.41h119.07c21.51,0,38.53,8.26,47.8,23.1,6.81,11.01,12.1,30.06-1.74,58.3Zm-8.76,191.5c-53.38,0-70.47,26.87-83.07,54.54h-10.28v-109.66c0-9.2-3.69-15.5-10.43-18.47-2.9-1.3-6.3-1.96-10.29-1.96h-46.14c-13.18,0-20.42,7.32-20.42,20.42v316.94c0,13.4,7.24,20.72,20.42,20.72h46.14c13.11,0,20.71-7.32,20.71-20.72v-125.59c0-35.56,13.11-55.41,46.43-55.41,35.2,0,48.67,19.85,48.67,55.41v125.59c0,13.4,7.53,20.72,20.64,20.72h46.21c13.11,0,20.42-7.32,20.42-20.72v-156.95c0-63.23-23.25-104.87-89.01-104.87Zm441.45,144.64c0,84.16-53.16,144.86-136.82,144.86h-13.11c-83.65,0-136.53-60.69-136.53-144.86s52.87-144.64,136.82-144.64h12.82c83.65,0,136.82,60.4,136.82,144.64Zm-85.03,0c0-38.1-19.05-63.52-52.58-63.52h-11.23c-33.53,0-52.58,25.42-52.58,63.52s19.05,63.74,52.58,63.74h11.23c33.53,0,52.58-25.71,52.58-63.74Zm413.71,54.25c0,58.45-29.62,90.61-139.28,90.61-61.85,0-115.3-11.44-115.3-42.51v-15.64c0-7.82,2.82-13.83,7.17-17.96.58-.51,1.09-1.01,1.67-1.45.65-.43,1.3-.87,1.88-1.3,1.88-1.16,3.91-2.03,5.94-2.61,1.16-.36,2.39-.51,3.62-.65.65-.07,1.3-.14,1.88-.14s1.09-.07,1.67-.07c.51,0,1.09.07,1.59.07.8.07,1.59.14,2.32.29,13.98,2.83,48.67,10.14,93.72,10.14,39.69,0,48.89-4.78,48.89-18.18,0-11.52-6.37-16.51-23.76-18.76l-54.83-7.32c-65.69-8.91-91.48-33.24-91.48-85.03,0-59.83,35.27-88.36,127.54-88.36,59.03,0,107.7,11.73,107.7,42.8v16.22c0,12.75-7.89,21.37-20.79,21.37-2.1,0-4.27-.22-6.59-.65-15.14-3.11-40.27-8.98-80.54-8.98-35.27,0-43.96,3.62-43.96,17.31,0,10.94,5.58,16.22,23.76,18.76l57.36,7.53c59.9,8.11,89.81,25.2,89.81,84.52Zm236.91-123.05v90.9c0,29.62,15.14,45.56,44.76,45.56h47.01c13.11,0,23.76,11.23,23.76,24.33v21.51c0,13.18-10.65,24.41-23.76,24.41h-84.23c-60.69,0-94.81-37.23-94.81-97.92v-108.79h-56.49c-9.49,0-20.13-11.23-20.13-24.41v-21.51c0-13.11,10.65-24.34,20.13-24.34h56.49v-46.14c0-13.18,7.82-20.71,21.58-20.71h43.89c13.69,0,21.8,7.53,21.8,20.71v46.14h93.14c13.18,0,23.76,11.23,23.76,24.34v21.51c0,13.18-10.57,24.41-23.76,24.41h-93.14Z"/>
</svg>