<?xml version="1.0" encoding="UTF-8"?>
<svg id="Calque_1" data-name="Calque 1" xmlns="http://www.w3.org/2000/svg" xmlns:xlink="http://www.w3.org/1999/xlink" viewBox="0 0 2000 1005">
  <defs>
    <style>
      .cls-1 {
        fill: url(#Dégradé_sans_nom_10);
      }

      .cls-2 {
        fill: #1d1d1b;
      }
    </style>
    <linearGradient id="Dégradé_sans_nom_10" data-name="Dégradé sans nom 10" x1="95.11" y1="502.5" x2="798.38" y2="502.5" gradientUnits="userSpaceOnUse">
      <stop offset="0" stop-color="#b8ce3a"/>
      <stop offset="1" stop-color="#60b137"/>
    </linearGradient>
  </defs>
  <path class="cls-1" d="m789.72,204.03l-34.54,72.27c-4.7,9.83-17.96,12.42-25.47,4.52-3.97-4.17-8.38-7.92-13.18-11.19-6.29-4.28-8.29-12.67-5.01-19.54l32.56-68.16c1.81-3.84,2.75-6.59,3.19-8.4-.94-.07-2.17-.22-3.62-.22h-119.07c-5.87,0-9.13,0-19.19,21.44l-36.94,76.84-33.32,69.46-64.46,134.21c-4.2,8.76-13.04,14.34-22.74,14.34h-.07c-9.71,0-18.54-5.5-22.74-14.2l-137.39-280.3c-11.15-21.8-13.4-21.8-18.76-21.8h-119.14c-1.45,0-2.68.14-3.62.22.43,1.81,1.3,4.49,3.11,8.18l230.32,459.55c3.55,7.03,3.62,15.28.22,22.38l-76.41,158.98h-.07c-1.96,4.06-2.82,6.95-3.26,8.84,1.01.14,2.25.22,3.69.22h120.81c5.58,0,8.62,0,19.34-21.8l74.69-156.27c3.98-8.33,16.49-5.49,16.49,3.74h0c0,14.44,3,27.69,8.48,39.25,3.27,6.89,3.6,14.79.31,21.67l-54.35,113.7c-12.6,25.64-27.81,50.41-64.97,50.41h-120.81c-21.44,0-38.31-8.11-47.66-22.96-6.88-11.01-12.24-30.13,1.59-58.81l71.05-147.75L103.9,204.24c-13.98-28.46-8.69-47.51-1.88-58.52,9.34-14.92,26.29-23.1,47.8-23.1h119.14c35.78,0,50.19,22.6,64.1,49.83l114.58,233.8,111.97-233.22c11.37-24.26,26.87-50.41,64.97-50.41h119.07c21.51,0,38.53,8.26,47.8,23.1,6.81,11.01,12.1,30.06-1.74,58.3Z"/>
  <g>
    <path class="cls-2" d="m869.97,500.4v156.95c0,13.4-7.32,20.72-20.42,20.72h-46.21c-13.11,0-20.64-7.32-20.64-20.72v-125.59c0-35.56-13.47-55.41-48.67-55.41-33.32,0-46.43,19.85-46.43,55.41v125.59c0,13.4-7.61,20.72-20.71,20.72h-46.14c-13.18,0-20.42-7.32-20.42-20.72v-316.94c0-13.11,7.24-20.42,20.42-20.42h46.14c3.98,0,7.39.65,10.29,1.96,6.74,2.97,10.43,9.27,10.43,18.47v109.66h10.28c12.6-27.67,29.7-54.54,83.07-54.54,65.76,0,89.01,41.65,89.01,104.87Z"/>
    <path class="cls-2" d="m1085.58,395.52h-12.82c-83.94,0-136.82,60.4-136.82,144.64s52.87,144.86,136.53,144.86h13.11c83.65,0,136.82-60.69,136.82-144.86s-53.16-144.64-136.82-144.64Zm-.8,208.37h-11.23c-33.53,0-52.58-25.71-52.58-63.74s19.05-63.52,52.58-63.52h11.23c33.53,0,52.58,25.42,52.58,63.52s-19.05,63.74-52.58,63.74Z"/>
    <path class="cls-2" d="m1461.27,509.89l-57.36-7.53c-18.18-2.54-23.76-7.82-23.76-18.76,0-13.69,8.69-17.31,43.96-17.31,40.27,0,65.4,5.87,80.54,8.98,2.32.43,4.49.65,6.59.65,12.89,0,20.79-8.62,20.79-21.37v-16.22c0-31.07-48.67-42.8-107.7-42.8-92.27,0-127.54,28.54-127.54,88.36,0,51.79,25.78,76.12,91.48,85.03l54.83,7.32c17.38,2.25,23.76,7.24,23.76,18.76,0,13.4-9.2,18.18-48.89,18.18-45.05,0-79.74-7.32-93.72-10.14-.72-.14-1.52-.22-2.32-.29-.51,0-1.09-.07-1.59-.07-.58,0-1.09.07-1.67.07s-1.23.07-1.88.14c-1.23.14-2.46.29-3.62.65-2.03.58-4.06,1.45-5.94,2.61-.58.43-1.23.87-1.88,1.3-.58.43-1.09.94-1.67,1.45-4.35,4.13-7.17,10.14-7.17,17.96v15.64c0,31.07,53.45,42.51,115.3,42.51,109.66,0,139.28-32.16,139.28-90.61s-29.91-76.41-89.81-84.52Z"/>
    <path class="cls-2" d="m1881.13,471.36c13.18,0,23.76-11.23,23.76-24.41v-21.51c0-13.11-10.57-24.34-23.76-24.34h-93.14v-46.14c0-13.18-8.11-20.71-21.8-20.71h-43.89c-13.76,0-21.58,7.53-21.58,20.71v46.14h-56.49c-9.49,0-20.13,11.23-20.13,24.34v21.51c0,13.18,10.65,24.41,20.13,24.41h56.49v108.79c0,60.69,34.11,97.92,94.81,97.92h84.23c13.11,0,23.76-11.23,23.76-24.41v-21.51c0-13.11-10.65-24.33-23.76-24.33h-47.01c-29.62,0-44.76-15.93-44.76-45.56v-90.9h93.14Z"/>
  </g>
</svg>