<?xml version="1.0" encoding="UTF-8"?>
<svg id="Calque_1" data-name="Calque 1" xmlns="http://www.w3.org/2000/svg" xmlns:xlink="http://www.w3.org/1999/xlink" viewBox="0 0 2000 2000">
  <defs>
    <style>
      .cls-1 {
        fill: url(#Dégradé_sans_nom_10);
      }
    </style>
    <linearGradient id="Dégradé_sans_nom_10" data-name="Dégradé sans nom 10" x1="340.38" y1="1000" x2="1659.62" y2="1000" gradientUnits="userSpaceOnUse">
      <stop offset="0" stop-color="#b8ce3a"/>
      <stop offset="1" stop-color="#60b137"/>
    </linearGradient>
  </defs>
  <path class="cls-1" d="m958.42,1712.61h-226.54c-40.2,0-71.94-15.3-89.39-43.08-12.97-20.65-22.99-56.55,2.89-110.28l133.28-277.2L356.85,440.43c-26.19-53.36-16.32-89.08-3.46-109.71,17.41-27.94,49.23-43.32,89.62-43.32h223.42c67.12,0,94.19,42.34,120.29,93.49l214.9,438.48,210.09-437.46c21.37-45.52,50.35-94.51,121.83-94.51h223.41c40.39,0,72.22,15.39,89.63,43.32,12.86,20.63,22.72,56.35-3.29,109.36l-563,1177.95c-23.55,48.07-52.18,94.59-121.88,94.59Zm-234.04-90.42h.14-.14Zm.58-5.13c1.81.27,4.11.45,6.92.45h226.54c10.46,0,16.23,0,36.27-40.91L1557.71,398.61c3.51-7.15,5.21-12.27,6.03-15.68-1.79-.24-4.04-.42-6.77-.42h-223.41c-11,0-17.06,0-35.92,40.2l-252.7,526.18c-7.88,16.41-24.46,26.89-42.67,26.96h-.19c-18.14,0-34.71-10.32-42.7-26.63l-257.7-525.8c-20.88-40.92-25.08-40.92-35.23-40.92h-223.42c-2.74,0-5,.19-6.79.44.8,3.33,2.44,8.33,5.83,15.23l432.11,862.13c6.6,13.16,6.73,28.65.34,41.91l-143.4,298.24-.02.04c-3.68,7.64-5.36,13.06-6.12,16.56Zm-36.72-37.2h.13-.13Z"/>
</svg>