<?xml version="1.0" encoding="UTF-8"?>
<svg xmlns="http://www.w3.org/2000/svg" xmlns:xlink="http://www.w3.org/1999/xlink" viewBox="0 0 4161 3905">
  <defs>
    <style>
      .cls-1 {
        fill: #fff;
      }

      .cls-2 {
        font-size: 100px;
      }

      .cls-2, .cls-3 {
        font-family: EllographCF-Bold, 'Ellograph CF';
        font-weight: 700;
      }

      .cls-4 {
        fill: none;
        stroke: #000;
        stroke-miterlimit: 10;
        stroke-width: 3px;
      }

      .cls-3 {
        fill: gray;
        font-size: 80px;
      }

      .cls-5 {
        fill: url(#Dégradé_foncé_clair);
      }
    </style>
    <linearGradient id="Dégradé_foncé_clair" data-name="Dégradé foncé/clair" x1="240" y1="349.25" x2="3998" y2="349.25" gradientUnits="userSpaceOnUse">
      <stop offset="0" stop-color="#b8ce3a"/>
      <stop offset="1" stop-color="#60b137"/>
    </linearGradient>
  </defs>
  <g id="tableau">
    <rect class="cls-1" x="240" y="175.5" width="3758" height="3488.06" rx="89.46" ry="89.46"/>
    <path class="cls-5" d="m3908.54,175.5H329.46c-49.41,0-89.46,40.05-89.46,89.46v258.04h3758v-258.04c0-49.41-40.05-89.46-89.46-89.46Z"/>
    <line class="cls-4" x1="1164.55" y1="180.03" x2="1164.55" y2="3663.3"/>
    <line class="cls-4" x1="1752.34" y1="180.73" x2="1752.34" y2="3664"/>
    <line class="cls-4" x1="2438.2" y1="180.73" x2="2438.2" y2="3664"/>
    <line class="cls-4" x1="3234.98" y1="175.94" x2="3234.98" y2="3659.21"/>
    <line class="cls-4" x1="240" y1="783" x2="3998" y2="783"/>
    <line class="cls-4" x1="240" y1="523.5" x2="3998" y2="523.5"/>
    <line class="cls-4" x1="240" y1="1042.5" x2="3998" y2="1042.5"/>
    <line class="cls-4" x1="240" y1="1301.5" x2="3998" y2="1301.5"/>
    <line class="cls-4" x1="240" y1="1561" x2="3998" y2="1561"/>
    <line class="cls-4" x1="240" y1="1820.5" x2="3998" y2="1820.5"/>
    <line class="cls-4" x1="240" y1="2079.5" x2="3998" y2="2079.5"/>
    <line class="cls-4" x1="240" y1="2339" x2="3998" y2="2339"/>
    <line class="cls-4" x1="240" y1="2598.5" x2="3998" y2="2598.5"/>
    <line class="cls-4" x1="240" y1="2857.5" x2="3998" y2="2857.5"/>
    <line class="cls-4" x1="240" y1="3117" x2="3998" y2="3117"/>
    <line class="cls-4" x1="240" y1="3376.5" x2="3998" y2="3376.5"/>
    <path d="m3908.54,178.5c47.68,0,86.46,38.79,86.46,86.46v3309.14c0,47.68-38.79,86.46-86.46,86.46H329.46c-47.68,0-86.46-38.79-86.46-86.46V264.96c0-47.68,38.79-86.46,86.46-86.46h3579.08m0-3H329.46c-49.41,0-89.46,40.05-89.46,89.46v3309.14c0,49.41,40.05,89.46,89.46,89.46h3579.08c49.41,0,89.46-40.05,89.46-89.46V264.96c0-49.41-40.05-89.46-89.46-89.46h0Z"/>
  </g>
  <g id="texte_tableau" data-name="texte tableau">
    <text class="cls-3" transform="translate(364.15 693.92)"><tspan x="0" y="0">Db1-small</tspan></text>
    <text class="cls-3" transform="translate(1288.7 693.92)"><tspan x="0" y="0">256 MB</tspan></text>
    <text class="cls-3" transform="translate(1875.5 693.92)"><tspan x="0" y="0">1000 GB</tspan></text>
    <text class="cls-3" transform="translate(2555 693.92)"><tspan x="0" y="0">2€</tspan></text>
    <text class="cls-3" transform="translate(3358.9 693.92)"><tspan x="0" y="0">8€</tspan></text>
    <text class="cls-3" transform="translate(364.15 954.1)"><tspan x="0" y="0">Db2-small</tspan></text>
    <text class="cls-3" transform="translate(1288.7 954.1)"><tspan x="0" y="0">512 MB</tspan></text>
    <text class="cls-3" transform="translate(1875.5 954.1)"><tspan x="0" y="0">1000 GB</tspan></text>
    <text class="cls-3" transform="translate(2555 954.1)"><tspan x="0" y="0">3€</tspan></text>
    <text class="cls-3" transform="translate(3358.9 954.1)"><tspan x="0" y="0">10€</tspan></text>
    <text class="cls-3" transform="translate(364.15 1214.28)"><tspan x="0" y="0">Db3-small</tspan></text>
    <text class="cls-3" transform="translate(1288.7 1214.28)"><tspan x="0" y="0">1 GB</tspan></text>
    <text class="cls-3" transform="translate(1875.5 1214.28)"><tspan x="0" y="0">1000 GB</tspan></text>
    <text class="cls-3" transform="translate(2555 1214.28)"><tspan x="0" y="0">4€</tspan></text>
    <text class="cls-3" transform="translate(3358.9 1214.28)"><tspan x="0" y="0">14€</tspan></text>
    <text class="cls-3" transform="translate(364.15 1474.46)"><tspan x="0" y="0">Db4-small</tspan></text>
    <text class="cls-3" transform="translate(1288.7 1474.46)"><tspan x="0" y="0">2 GB</tspan></text>
    <text class="cls-3" transform="translate(1875.5 1474.46)"><tspan x="0" y="0">1000 GB</tspan></text>
    <text class="cls-3" transform="translate(1288.7 1734.65)"><tspan x="0" y="0">256 MB</tspan></text>
    <text class="cls-3" transform="translate(1875.5 1734.65)"><tspan x="0" y="0">2000 GB</tspan></text>
    <text class="cls-3" transform="translate(1288.7 1994.83)"><tspan x="0" y="0">512 MB</tspan></text>
    <text class="cls-3" transform="translate(1875.5 1994.83)"><tspan x="0" y="0">2000 GB</tspan></text>
    <text class="cls-3" transform="translate(1288.7 2255.01)"><tspan x="0" y="0">1 GB</tspan></text>
    <text class="cls-3" transform="translate(1875.5 2255.01)"><tspan x="0" y="0">2000 GB</tspan></text>
    <text class="cls-3" transform="translate(1288.7 2515.19)"><tspan x="0" y="0">2 GB</tspan></text>
    <text class="cls-3" transform="translate(1875.5 2515.19)"><tspan x="0" y="0">2000 GB</tspan></text>
    <text class="cls-3" transform="translate(2555 1474.46)"><tspan x="0" y="0">5€</tspan></text>
    <text class="cls-3" transform="translate(3358.9 1474.46)"><tspan x="0" y="0">18€</tspan></text>
    <text class="cls-3" transform="translate(364.15 1734.65)"><tspan x="0" y="0">Db1-medium</tspan></text>
    <text class="cls-3" transform="translate(2555 1734.65)"><tspan x="0" y="0">5€</tspan></text>
    <text class="cls-3" transform="translate(3358.9 1734.65)"><tspan x="0" y="0">19€</tspan></text>
    <text class="cls-3" transform="translate(364.15 1994.83)"><tspan x="0" y="0">Db2-medium</tspan></text>
    <text class="cls-3" transform="translate(2555 1994.83)"><tspan x="0" y="0">6€</tspan></text>
    <text class="cls-3" transform="translate(3358.9 1994.83)"><tspan x="0" y="0">22€</tspan></text>
    <text class="cls-3" transform="translate(364.15 2255.01)"><tspan x="0" y="0">Db3-medium</tspan></text>
    <text class="cls-3" transform="translate(364.15 2515.19)"><tspan x="0" y="0">Db4-medium</tspan></text>
    <text class="cls-3" transform="translate(2555 2255.01)"><tspan x="0" y="0">7€</tspan></text>
    <text class="cls-3" transform="translate(3358.9 2255.01)"><tspan x="0" y="0">26€</tspan></text>
    <text class="cls-3" transform="translate(2555 2515.19)"><tspan x="0" y="0">8€</tspan></text>
    <text class="cls-3" transform="translate(3358.9 2515.19)"><tspan x="0" y="0">30€</tspan></text>
    <text class="cls-3" transform="translate(1288.7 2775.38)"><tspan x="0" y="0">256 MB</tspan></text>
    <text class="cls-3" transform="translate(1875.5 2775.38)"><tspan x="0" y="0">3000 GB</tspan></text>
    <text class="cls-3" transform="translate(1288.7 3035.56)"><tspan x="0" y="0">512 MB</tspan></text>
    <text class="cls-3" transform="translate(1875.5 3035.56)"><tspan x="0" y="0">3000 GB</tspan></text>
    <text class="cls-3" transform="translate(1288.7 3295.74)"><tspan x="0" y="0">1 GB</tspan></text>
    <text class="cls-3" transform="translate(1875.5 3295.74)"><tspan x="0" y="0">3000 GB</tspan></text>
    <text class="cls-3" transform="translate(1288.7 3555.92)"><tspan x="0" y="0">2 GB</tspan></text>
    <text class="cls-3" transform="translate(1875.5 3555.92)"><tspan x="0" y="0">3000 GB</tspan></text>
    <text class="cls-3" transform="translate(364.15 2775.38)"><tspan x="0" y="0">Db1-large</tspan></text>
    <text class="cls-3" transform="translate(2555 2775.38)"><tspan x="0" y="0">10€</tspan></text>
    <text class="cls-3" transform="translate(3358.9 2775.38)"><tspan x="0" y="0">39€</tspan></text>
    <text class="cls-3" transform="translate(364.15 3035.56)"><tspan x="0" y="0">Db2-large</tspan></text>
    <text class="cls-3" transform="translate(2555 3035.56)"><tspan x="0" y="0">12€</tspan></text>
    <text class="cls-3" transform="translate(3358.9 3035.56)"><tspan x="0" y="0">46€</tspan></text>
    <text class="cls-3" transform="translate(364.15 3295.74)"><tspan x="0" y="0">Db3-large</tspan></text>
    <text class="cls-3" transform="translate(364.15 3555.92)"><tspan x="0" y="0">Db4-large</tspan></text>
    <text class="cls-3" transform="translate(2555 3295.74)"><tspan x="0" y="0">14€</tspan></text>
    <text class="cls-3" transform="translate(3358.9 3295.74)"><tspan x="0" y="0">54€</tspan></text>
    <text class="cls-3" transform="translate(2555 3555.92)"><tspan x="0" y="0">15€</tspan></text>
    <text class="cls-3" transform="translate(3358.9 3555.92)"><tspan x="0" y="0">58€</tspan></text>
    <g id="title">
      <text class="cls-2" transform="translate(364.15 394.92)"><tspan x="0" y="0">Debian</tspan></text>
      <text class="cls-2" transform="translate(1288.7 395.92)"><tspan x="0" y="0">Ram</tspan></text>
      <text class="cls-2" transform="translate(1875.5 395.92)"><tspan x="0" y="0">Stokage</tspan></text>
      <text class="cls-2" transform="translate(2555 331.92)"><tspan x="0" y="0">Price</tspan><tspan x="0" y="120">/week</tspan></text>
      <text class="cls-2" transform="translate(3358.9 330.42)"><tspan x="0" y="0">Price</tspan><tspan x="0" y="120">/month</tspan></text>
    </g>
  </g>
</svg>